Coordinates
version=1
nRows=32
nColumns=12
inDegrees=yes

Units are S.I. units (second, meters, Newtons, ...)
Angles are in degrees

endheader
time	SC_y	SC_z	SC_x	AC_y	AC_z	AC_x	GH_y	GH_z	GH_yy	EL_x	PS_y
       0.0              -36.29          25.81          28.57          52.54         -10.62         -7.032          -55.5          34.79          105.3          16.25          103.6
   0.01534              -36.29          25.82          28.58          52.54         -10.62         -7.029         -55.51           34.8          105.3          16.26          103.6
   0.03069              -36.29          25.82          28.58          52.54         -10.61         -7.025         -55.52           34.8          105.3          16.28          103.6
   0.04603              -36.29          25.82          28.59          52.54         -10.61         -7.022         -55.53          34.81          105.3           16.3          103.5
   0.06138              -36.29          25.82           28.6          52.53         -10.61         -7.018         -55.54          34.81          105.3          16.33          103.5
   0.07672              -36.29          25.82          28.61          52.53         -10.61         -7.014         -55.56          34.81          105.3          16.35          103.5
   0.09207              -36.29          25.83          28.61          52.53         -10.61          -7.01         -55.57          34.82          105.2          16.37          103.5
    0.1074              -36.29          25.83          28.62          52.53         -10.61         -7.005         -55.59          34.82          105.2           16.4          103.5
    0.1228              -36.29          25.83          28.63          52.52         -10.61           -7.0          -55.6          34.83          105.2          16.43          103.5
    0.1381              -36.29          25.83          28.64          52.52          -10.6         -6.995         -55.62          34.83          105.2          16.46          103.5
    0.1534              -36.29          25.84          28.65          52.52          -10.6         -6.989         -55.64          34.84          105.2          16.49          103.5
    0.1688              -36.29          25.84          28.67          52.51          -10.6         -6.983         -55.66          34.85          105.2          16.52          103.4
    0.1841              -36.29          25.84          28.68          52.51          -10.6         -6.977         -55.68          34.85          105.2          16.56          103.4
    0.1995              -36.29          25.85          28.69          52.51          -10.6          -6.97         -55.71          34.86          105.2           16.6          103.4
    0.2148              -36.29          25.85          28.71           52.5         -10.59         -6.962         -55.73          34.87          105.2          16.65          103.4
    0.2302              -36.29          25.85          28.72           52.5         -10.59         -6.954         -55.76          34.88          105.1          16.69          103.4
    0.2455               -36.3          25.86          28.74          52.49         -10.59         -6.945         -55.79          34.89          105.1          16.74          103.3
    0.2609               -36.3          25.86          28.76          52.48         -10.58         -6.935         -55.83           34.9          105.1           16.8          103.3
    0.2762               -36.3          25.87          28.78          52.48         -10.58         -6.924         -55.86          34.91          105.1          16.86          103.3
    0.2916               -36.3          25.87          28.81          52.47         -10.58         -6.912          -55.9          34.92          105.1          16.93          103.2
    0.3069               -36.3          25.88          28.83          52.46         -10.57         -6.899         -55.95          34.93          105.0           17.0          103.2
    0.3222               -36.3          25.89          28.86          52.45         -10.57         -6.885          -56.0          34.95          105.0          17.08          103.2
    0.3376               -36.3           25.9          28.89          52.44         -10.56         -6.869         -56.05          34.97          105.0          17.17          103.1
    0.3529               -36.3           25.9          28.93          52.43         -10.56         -6.852         -56.11          34.98          104.9          17.27          103.1
    0.3683               -36.3          25.91          28.96          52.42         -10.55         -6.833         -56.18           35.0          104.9          17.38          103.0
    0.3836               -36.3          25.92          29.01          52.41         -10.55         -6.811         -56.25          35.03          104.9          17.51          103.0
     0.399               -36.3          25.94          29.05           52.4         -10.54         -6.787         -56.33          35.05          104.8          17.64          102.9
    0.4143              -36.31          25.95          29.11          52.38         -10.53          -6.76         -56.43          35.08          104.8           17.8          102.8
    0.4297              -36.31          25.96          29.17          52.36         -10.52         -6.729         -56.53          35.11          104.7          17.98          102.7
     0.445              -36.31          25.98          29.24          52.34         -10.51         -6.694         -56.65          35.15          104.6          18.17          102.7
    0.4603              -36.31           26.0          29.32          52.32         -10.49         -6.654         -56.79          35.19          104.6           18.4          102.5
    0.4757              -36.31          26.02          29.41          52.29         -10.48         -6.608         -56.94          35.24          104.5          18.66          102.4
